<svg xmlns="http://www.w3.org/2000/svg" viewBox="0 0 640 720" width="640" height="720" role="img" aria-label="Placeholder illustration of a tutoring session">
  <defs>
    <linearGradient id="bg" x1="0" y1="0" x2="1" y2="1">
      <stop offset="0" stop-color="#eef4fb"/><stop offset="1" stop-color="#d6e4f5"/>
    </linearGradient>
  </defs>
  <rect width="640" height="720" fill="url(#bg)"/>
  <circle cx="530" cy="130" r="72" fill="#ffdb99" opacity=".55"/>
  <circle cx="100" cy="600" r="90" fill="#adc8e9" opacity=".45"/>
  <g>
    <circle cx="190" cy="270" r="52" fill="#2b5ca3"/>
    <path d="M120 390c0-38.7 31.3-70 70-70s70 31.3 70 70Z" fill="#1d4380"/>
    <circle cx="450" cy="270" r="52" fill="#f9ab28"/>
    <path d="M380 390c0-38.7 31.3-70 70-70s70 31.3 70 70Z" fill="#e8900a"/>
    <circle cx="320" cy="215" r="42" fill="#4b7cc0"/>
    <path d="M264 320c0-30.9 25.1-56 56-56s56 25.1 56 56Z" fill="#2b5ca3"/>
  </g>
  <rect x="90" y="410" width="460" height="22" rx="11" fill="#1d4380" opacity=".85"/>
  <rect x="150" y="432" width="26" height="100" rx="9" fill="#163461" opacity=".7"/>
  <rect x="464" y="432" width="26" height="100" rx="9" fill="#163461" opacity=".7"/>
  <g fill="#ffffff" stroke="#1d4380" stroke-width="5">
    <rect x="232" y="348" width="176" height="52" rx="9"/>
  </g>
  <path d="M258 368h50M258 383h90" stroke="#7ba4d8" stroke-width="6" stroke-linecap="round"/>
  <text x="320" y="640" font-family="system-ui, sans-serif" font-size="21" fill="#55637a" text-anchor="middle">Placeholder</text>
  <text x="320" y="670" font-family="system-ui, sans-serif" font-size="18" fill="#7b869b" text-anchor="middle">replace with a real photo</text>
</svg>
